<svg xmlns="http://www.w3.org/2000/svg" width="210" height="83" fill="none"><path fill-rule="evenodd" clip-rule="evenodd" d="M64.613 55.3v-.44c-.699.04-1.646.06-2.841.06h-1.059l-4.807 12.9-4.916-12.96c-.488.04-1.125.06-1.912.06-.896 0-1.588-.02-2.076-.06v.44c.398.007.793.067 1.175.18a.829.829 0 0 1 .5.52c.109.4.155.815.137 1.23v10.85c.017.438-.031.876-.142 1.3a1.042 1.042 0 0 1-.519.63 2.871 2.871 0 0 1-1.153.22v.45c.496-.04 1.188-.06 2.076-.06.99 0 1.751.02 2.283.06v-.45a3.584 3.584 0 0 1-1.305-.22 1.053 1.053 0 0 1-.574-.63 4.147 4.147 0 0 1-.153-1.3V56.29l5.637 14.5h.361l5.386-14.44v11.96c.018.415-.028.83-.137 1.23a.855.855 0 0 1-.5.52c-.38.114-.773.171-1.169.17v.45c.626-.04 1.58-.06 2.862-.06 1.195 0 2.142.02 2.841.06v-.45c-.398 0-.794-.057-1.175-.17a.854.854 0 0 1-.5-.52 4.03 4.03 0 0 1-.137-1.23V57.23c-.018-.415.028-.83.137-1.23a.829.829 0 0 1 .5-.52 4.404 4.404 0 0 1 1.175-.18h.005zm7.986 6.26v1.38a1.035 1.035 0 0 1-.377.77c-.37.297-.784.534-1.229.7-.568.23-.925.37-1.071.43-.694.286-1.37.617-2.021.99-.46.262-.86.62-1.169 1.05-.284.429-.43.936-.415 1.45-.019.499.117.991.388 1.41.257.37.615.659 1.032.83a3.83 3.83 0 0 0 1.42.26 4.201 4.201 0 0 0 1.868-.45 3.863 3.863 0 0 0 1.574-1.53 2.283 2.283 0 0 0 .42 1.44 1.8 1.8 0 0 0 1.5.54c.265.004.53-.026.787-.09.21-.063.413-.154.6-.27.175-.11.393-.26.655-.45l-.251-.39c-.152.136-.32.254-.5.35-.154.08-.326.121-.5.12a.571.571 0 0 1-.53-.25c-.124-.25-.18-.53-.158-.81v-6.21a7.467 7.467 0 0 0-.192-1.91 2.787 2.787 0 0 0-.7-1.22 2.692 2.692 0 0 0-1.093-.61 5.272 5.272 0 0 0-1.616-.23 6.234 6.234 0 0 0-1.787.24c-.476.134-.93.336-1.349.6a1.99 1.99 0 0 0-1.049 1.6c-.017.361.098.717.323 1a1.113 1.113 0 0 0 .89.38 1.39 1.39 0 0 0 .956-.32 1.132 1.132 0 0 0 .355-.89 1.357 1.357 0 0 0-1.049-1.36 2.693 2.693 0 0 1 2.218-.8 2.287 2.287 0 0 1 1.535.47 2.322 2.322 0 0 1 .541 1.78h-.006zm0 2.3v4.39a2.97 2.97 0 0 1-2.524 1.69 1.753 1.753 0 0 1-1.3-.5 1.999 1.999 0 0 1-.492-1.47c-.014-.467.095-.93.317-1.34a2.85 2.85 0 0 1 .765-.87c.345-.238.71-.446 1.092-.62.809-.4 1.34-.66 1.595-.81.216-.112.403-.273.547-.47zm8.346-2.14v-2.79c-.755.22-1.54.322-2.327.3-.459 0-.921-.02-1.387-.06v.47a1.6 1.6 0 0 1 1.327.47c.289.444.421.972.377 1.5v7c.015.332-.043.663-.169.97a.956.956 0 0 1-.536.49c-.323.104-.661.151-1 .14v.47c1.369-.06 2.25-.09 2.643-.09.46 0 1.607.03 3.442.09v-.47a3.171 3.171 0 0 1-1.781-.4 1.593 1.593 0 0 1-.59-1.43v-4.74a4.937 4.937 0 0 1 .4-1.85 4.757 4.757 0 0 1 1.114-1.67 2.266 2.266 0 0 1 1.6-.68.526.526 0 0 1 .47.22 1.4 1.4 0 0 0-.764 1.21 1.083 1.083 0 0 0 .349.85c.233.203.532.314.841.31a1.17 1.17 0 0 0 .929-.41c.235-.28.36-.635.349-1a1.555 1.555 0 0 0-.262-.88 1.78 1.78 0 0 0-.726-.64 2.264 2.264 0 0 0-1.054-.24c-.495 0-.98.15-1.388.43a4.144 4.144 0 0 0-1.131 1.08 5.592 5.592 0 0 0-.726 1.35zm15.731 7.32l-4.042-5.52 2.72-2.86a3.148 3.148 0 0 1 2.011-1.04v-.45c-.6.06-1.248.09-1.945.09-.648 0-1.49-.03-2.524-.09v.45c.408-.015.815.046 1.2.18a.613.613 0 0 1 .448.58c-.08.482-.333.92-.71 1.23l-1.661 1.72c-.238.254-.52.464-.83.62a3.171 3.171 0 0 1-1.092.3V53.16a7.11 7.11 0 0 1-2.327.31c-.452 0-.915-.02-1.388-.06v.47a1.627 1.627 0 0 1 1.328.46c.289.444.421.972.377 1.5v12.77c.015.332-.043.663-.17.97a.95.95 0 0 1-.535.49c-.323.104-.661.15-1 .14v.47c1.37-.06 2.273-.09 2.71-.09.4 0 1.226.03 2.479.09v-.47a2.234 2.234 0 0 1-.868-.14.886.886 0 0 1-.459-.49c-.11-.31-.16-.64-.147-.97v-3.9c.326 0 .647.075.939.22.295.202.548.46.743.76l2.567 3.76c.08.096.125.215.131.34a.351.351 0 0 1-.185.3.92.92 0 0 1-.5.12v.47c1.253-.06 2.08-.09 2.48-.09.306 0 .91.03 1.813.09v-.47a1.593 1.593 0 0 1-.808-.33 4.392 4.392 0 0 1-.754-.84h-.001zm7.953-14.18v.44c.398.007.793.067 1.175.18a.835.835 0 0 1 .5.52c.109.4.155.815.137 1.23v11.08c.018.415-.028.83-.137 1.23a.854.854 0 0 1-.5.52c-.381.113-.777.17-1.175.17v.45c.627-.04 1.552-.06 2.775-.06.35 0 .909.01 1.677.03.768.02 1.255.03 1.458.03a8.899 8.899 0 0 0 4.359-1 6.701 6.701 0 0 0 2.781-2.82c.662-1.324.99-2.79.956-4.27a7.817 7.817 0 0 0-1.972-5.76c-1.315-1.31-3.29-1.967-5.927-1.97-.2 0-1.325.02-3.375.06l-.547.01c-.655 0-1.384-.02-2.185-.07zm3.889 13.5V57.18a4.114 4.114 0 0 1 .132-1.2.882.882 0 0 1 .48-.56c.335-.126.692-.18 1.049-.16a7.218 7.218 0 0 1 3.654.8 4.566 4.566 0 0 1 1.961 2.43c.442 1.351.645 2.769.6 4.19a13.567 13.567 0 0 1-.552 4.22 4.629 4.629 0 0 1-1.906 2.52 6.966 6.966 0 0 1-3.736.86 2.838 2.838 0 0 1-1.065-.16.881.881 0 0 1-.486-.56 4.014 4.014 0 0 1-.132-1.2h.001zm21.708-.36l-.448-.18a3.444 3.444 0 0 1-3.289 2.24 2.744 2.744 0 0 1-1.66-.59 4.148 4.148 0 0 1-1.273-1.69 6.357 6.357 0 0 1-.486-2.58c-.005-.478.021-.955.076-1.43h6.992a5.4 5.4 0 0 0-1.087-3.69 3.936 3.936 0 0 0-3.1-1.22 4.686 4.686 0 0 0-2.671.77 4.965 4.965 0 0 0-1.764 2.2 8.402 8.402 0 0 0-.623 3.37 7.101 7.101 0 0 0 .612 3.03 4.615 4.615 0 0 0 1.775 2.04c.83.503 1.788.757 2.758.73a4.179 4.179 0 0 0 1.918-.43 4.277 4.277 0 0 0 1.431-1.11c.369-.429.653-.924.836-1.46h.003zm-2.24-4.65h-4.872c.044-.78.216-1.546.508-2.27.206-.525.542-.99.977-1.35a2.07 2.07 0 0 1 1.268-.44 1.58 1.58 0 0 1 1.212.54c.357.427.605.935.721 1.48.157.668.22 1.355.186 2.04zm5.572-4.16h-1.792v.45h1.792v8.97a2.27 2.27 0 0 1-.17.97.953.953 0 0 1-.535.49c-.323.104-.661.15-1 .14v.47c1.4-.06 2.281-.09 2.644-.09.459 0 1.606.03 3.441.09v-.47a3.167 3.167 0 0 1-1.78-.4 1.598 1.598 0 0 1-.59-1.43v-8.74h2.4v-.45h-2.4v-.58c0-1.34.025-2.31.076-2.91.016-.461.128-.914.328-1.33a1.534 1.534 0 0 1 1.453-.83c.255-.012.51.036.743.14a.615.615 0 0 1 .36.35c-.265.05-.506.187-.683.39-.174.21-.266.477-.256.75a1.136 1.136 0 0 0 .355.88c.236.217.548.332.868.32a1.169 1.169 0 0 0 .858-.33 1.13 1.13 0 0 0 .333-.84 1.724 1.724 0 0 0-.7-1.39 3.087 3.087 0 0 0-1.945-.61 3.808 3.808 0 0 0-1.518.3c-.439.178-.828.46-1.136.82a3.915 3.915 0 0 0-.683 1.14 6.172 6.172 0 0 0-.355 1.51c-.08.737-.117 1.478-.109 2.22h.001zm10.8-.33a5.236 5.236 0 0 0-2.617.65 4.424 4.424 0 0 0-1.8 2 9.233 9.233 0 0 0 0 6.86 4.445 4.445 0 0 0 1.8 1.99 5.67 5.67 0 0 0 5.233 0 4.446 4.446 0 0 0 1.8-1.99 9.233 9.233 0 0 0 0-6.86 4.425 4.425 0 0 0-1.8-2 5.226 5.226 0 0 0-2.616-.65zm0 .45a2.367 2.367 0 0 1 2.125 1.38 11.93 11.93 0 0 1 0 8.49 2.331 2.331 0 0 1-3.389.998 2.331 2.331 0 0 1-.861-.998 11.93 11.93 0 0 1 0-8.49 2.363 2.363 0 0 1 2.125-1.38zm16.933 8.96v-9.34c-.755.22-1.54.322-2.327.3-.459 0-.922-.02-1.387-.06v.47a1.6 1.6 0 0 1 1.327.47c.289.444.421.972.377 1.5v4.62c.009.703-.125 1.4-.393 2.05a3.505 3.505 0 0 1-1.082 1.46 2.447 2.447 0 0 1-1.551.54 1.599 1.599 0 0 1-1.125-.34c-.25-.221-.416-.521-.47-.85a7.779 7.779 0 0 1-.1-1.38v-8.78c-.755.22-1.54.32-2.326.3-.459 0-.921-.02-1.388-.06v.47a1.576 1.576 0 0 1 1.322.47c.285.446.415.973.371 1.5v5.61a7.744 7.744 0 0 0 .17 1.79c.089.423.287.816.573 1.14a3.11 3.11 0 0 0 2.327.85 3.76 3.76 0 0 0 2.147-.66 4.178 4.178 0 0 0 1.524-2.03v2.64a7.1 7.1 0 0 1 2.327-.31c.459 0 .921.02 1.387.06v-.47a1.627 1.627 0 0 1-1.327-.46 2.387 2.387 0 0 1-.377-1.5h.001zM104.736 11a16.39 16.39 0 1 1-16.422 16.39A16.407 16.407 0 0 1 104.736 11zm5.38 17.38h-.273l-.26.69a1.356 1.356 0 0 1-.9 1.13.25.25 0 0 1-.274-.29c.008-.144.039-.286.091-.42l1.4-4.24c.122-.334.189-.685.2-1.04a1.012 1.012 0 0 0-1.172-1.12 2.39 2.39 0 0 0-1.158.28c-.407.241-.755.57-1.021.96a9.119 9.119 0 0 0-.986 1.84l.26-.92c.104-.34.163-.694.175-1.05a1 1 0 0 0-.291-.84.99.99 0 0 0-.846-.27c-.437-.01-.867.1-1.245.32a3.425 3.425 0 0 0-1.032 1.04c-.383.6-.704 1.236-.958 1.9l.33-1.26c.081-.28.123-.569.126-.86a1.017 1.017 0 0 0-1.158-1.14 1.955 1.955 0 0 0-1.944 1.47l-.386 1.09h.274l.274-.73c.103-.31.25-.603.438-.87a.59.59 0 0 1 .467-.26.248.248 0 0 1 .26.3c-.005.14-.028.277-.07.41l-1.755 6.21h2.02l.379-1.48v.04c.279-.952.612-1.887 1-2.8a9.184 9.184 0 0 1 1.045-1.9 1.37 1.37 0 0 1 .948-.69.232.232 0 0 1 .187.082c.023.027.04.059.049.093.008.035.009.07.002.105-.016.201-.058.4-.126.59l-1.754 5.96h2.056l.372-1.33v.04a25.824 25.824 0 0 1 1.13-3.06 8.95 8.95 0 0 1 1.067-1.86 1.335 1.335 0 0 1 .884-.62c.131 0 .2.1.2.29a2.05 2.05 0 0 1-.112.58l-1.291 3.87a3.856 3.856 0 0 0-.218 1.13 1.106 1.106 0 0 0 1.305 1.16 1.937 1.937 0 0 0 1.944-1.48l.347-1.05z" fill="#000"></path></svg>