<svg xmlns="http://www.w3.org/2000/svg" width="210" height="83" fill="none"><path fill-rule="evenodd" clip-rule="evenodd" d="M78.8 37.5h1.247a.666.666 0 0 0 .617-.383.59.59 0 0 0 .048-.246v-8.1a3.028 3.028 0 0 1 3.271-3.27h1.58a.61.61 0 0 0 .471-.18.637.637 0 0 0 .166-.45v-1.02a.57.57 0 0 0-.637-.63h-1.081a4.14 4.14 0 0 0-3.853 1.87v-1.21a.648.648 0 0 0-.18-.48.658.658 0 0 0-.485-.18H78.8a.592.592 0 0 0-.458.19.673.673 0 0 0-.18.47v12.99a.61.61 0 0 0 .39.587.62.62 0 0 0 .248.043zm15.217.27a7.466 7.466 0 0 0 3.146-.62 6.177 6.177 0 0 0 2.12-1.46 2.45 2.45 0 0 0 .749-1.46.427.427 0 0 0-.18-.36.7.7 0 0 0-.43-.13H98.2a1.303 1.303 0 0 0-.471.06 1.499 1.499 0 0 0-.388.4c-.343.426-.76.785-1.233 1.06a3.96 3.96 0 0 1-2.121.51 3.308 3.308 0 0 1-2.716-1.27 5.04 5.04 0 0 1-1.109-3.04v-.25h9.618a.618.618 0 0 0 .638-.63v-.5a7.648 7.648 0 0 0-1.677-5.21 6.716 6.716 0 0 0-9.244-.17 7.133 7.133 0 0 0-1.857 4.72l-.028.91.028.93a7.143 7.143 0 0 0 1.857 4.77 6.01 6.01 0 0 0 4.518 1.74h.002zm-3.853-8.43v-.08a4.68 4.68 0 0 1 1.026-3.13 3.5 3.5 0 0 1 2.827-1.21 3.549 3.549 0 0 1 2.827 1.21 4.6 4.6 0 0 1 1.053 3.13v.08h-7.733zm14.275 8.16h1.219a.62.62 0 0 0 .638-.63v-7.72a4.258 4.258 0 0 1 .956-3.1 3.107 3.107 0 0 1 2.287-.96 3.216 3.216 0 0 1 2.37.96 4.31 4.31 0 0 1 .956 3.13v7.69a.614.614 0 0 0 .637.63h1.22a.62.62 0 0 0 .594-.386.614.614 0 0 0 .043-.243v-7.69a4.324 4.324 0 0 1 .957-3.12 3.09 3.09 0 0 1 2.286-.97 3.2 3.2 0 0 1 2.412.94 4.46 4.46 0 0 1 .915 3.15v7.69a.615.615 0 0 0 .637.63h1.192a.62.62 0 0 0 .638-.63v-7.94a6.28 6.28 0 0 0-1.442-4.45 4.884 4.884 0 0 0-3.714-1.54 5.552 5.552 0 0 0-2.758.69 4.89 4.89 0 0 0-1.9 1.84 4.464 4.464 0 0 0-4.324-2.53 4.963 4.963 0 0 0-4.046 1.84v-.93a.64.64 0 0 0-.167-.45.573.573 0 0 0-.443-.18h-1.162a.623.623 0 0 0-.595.386.633.633 0 0 0-.043.244v13.02a.614.614 0 0 0 .638.63h-.001zm29.824.27a6.26 6.26 0 0 0 4.7-1.7 6.65 6.65 0 0 0 1.76-4.53c.037-.4.056-.8.056-1.18 0-.38-.019-.78-.056-1.18a6.543 6.543 0 0 0-1.788-4.53 7.232 7.232 0 0 0-9.341 0 6.543 6.543 0 0 0-1.788 4.53l-.027 1.18.027 1.18a6.645 6.645 0 0 0 1.761 4.53 6.257 6.257 0 0 0 4.7 1.7h-.004zm0-2.06a3.67 3.67 0 0 1-2.814-1.11 4.81 4.81 0 0 1-1.122-3.2l-.028-1.04.028-1.05a4.782 4.782 0 0 1 1.122-3.19 4.094 4.094 0 0 1 5.627 0 4.788 4.788 0 0 1 1.123 3.19c.018.19.027.54.027 1.05s-.009.86-.027 1.04a4.816 4.816 0 0 1-1.123 3.2 3.67 3.67 0 0 1-2.813 1.11zm15.416 1.79h1.88a.573.573 0 0 0 .44-.18.64.64 0 0 0 .17-.45v-.91a.64.64 0 0 0-.17-.45.576.576 0 0 0-.44-.18h-1.69a1.722 1.722 0 0 1-1.57-.72 3.986 3.986 0 0 1-.45-2.11v-7.17h3.43a.647.647 0 0 0 .46-.16.57.57 0 0 0 .18-.44v-.88a.615.615 0 0 0-.64-.63h-3.43v-4.59a.614.614 0 0 0-.64-.63h-1.22a.558.558 0 0 0-.44.18.594.594 0 0 0-.17.45v4.59h-2.19a.567.567 0 0 0-.444.18.64.64 0 0 0-.167.45v.88a.6.6 0 0 0 .167.44.593.593 0 0 0 .444.16h2.19v7.36c0 3.21 1.433 4.814 4.3 4.81zm10.92.27a7.428 7.428 0 0 0 3.14-.62 6.143 6.143 0 0 0 2.12-1.46c.411-.385.676-.9.75-1.46a.43.43 0 0 0-.18-.36.688.688 0 0 0-.43-.13h-1.22a1.294 1.294 0 0 0-.47.06c-.152.11-.284.246-.39.4-.343.425-.76.784-1.23 1.06a3.963 3.963 0 0 1-2.12.51 3.306 3.306 0 0 1-2.72-1.27 5.1 5.1 0 0 1-1.11-3.04v-.25h9.62a.619.619 0 0 0 .64-.63v-.5a7.64 7.64 0 0 0-1.68-5.21 6.711 6.711 0 0 0-9.24-.17 7.115 7.115 0 0 0-1.86 4.72l-.03.91.03.93a7.13 7.13 0 0 0 1.86 4.77 5.994 5.994 0 0 0 4.52 1.74zm-3.86-8.43v-.08a4.651 4.651 0 0 1 1.03-3.13 3.495 3.495 0 0 1 2.83-1.21 3.531 3.531 0 0 1 2.82 1.21 4.614 4.614 0 0 1 1.06 3.13v.08h-7.74zM83.1 65a8.562 8.562 0 0 0 3.2-.55 4.492 4.492 0 0 0 2.024-1.51 3.64 3.64 0 0 0 .679-2.14 3.41 3.41 0 0 0-1.1-2.61 7.927 7.927 0 0 0-3.728-1.57 15.527 15.527 0 0 1-2.55-.7 2.708 2.708 0 0 1-1.164-.74 1.536 1.536 0 0 1-.305-.97 1.806 1.806 0 0 1 .721-1.5 3.35 3.35 0 0 1 2.078-.56 5.067 5.067 0 0 1 1.525.2c.339.105.654.275.928.5.278.257.541.527.79.81a.584.584 0 0 0 .555.3h1.053c.16.001.314-.06.43-.17a.523.523 0 0 0 .18-.41 2.3 2.3 0 0 0-.624-1.29 5.13 5.13 0 0 0-1.857-1.34 6.907 6.907 0 0 0-2.98-.58 6.507 6.507 0 0 0-2.868.59 4.364 4.364 0 0 0-1.816 1.54 3.553 3.553 0 0 0-.61 1.96 3.46 3.46 0 0 0 1 2.56c.98.801 2.158 1.323 3.409 1.51.907.178 1.8.415 2.675.71.479.15.918.403 1.289.74.268.303.407.697.388 1.1a1.752 1.752 0 0 1-.9 1.59 4.53 4.53 0 0 1-2.4.55 4.4 4.4 0 0 1-2.121-.44 4.888 4.888 0 0 1-1.427-1.21 1.152 1.152 0 0 0-.264-.24.5.5 0 0 0-.263-.06h-1.164a.668.668 0 0 0-.416.15.509.509 0 0 0-.194.43c.067.497.29.96.638 1.32a5.364 5.364 0 0 0 1.954 1.41c1.018.44 2.12.652 3.229.62h.006zm14.663-.28h1.885a.575.575 0 0 0 .443-.18.632.632 0 0 0 .167-.45v-.9a.644.644 0 0 0-.167-.46.58.58 0 0 0-.443-.18h-1.691a1.7 1.7 0 0 1-1.566-.71 3.959 3.959 0 0 1-.457-2.11v-7.17h3.437a.655.655 0 0 0 .457-.17.55.55 0 0 0 .18-.43v-.88a.623.623 0 0 0-.179-.458.618.618 0 0 0-.458-.181h-3.437v-4.58a.611.611 0 0 0-.39-.587.62.62 0 0 0-.248-.043h-1.22a.575.575 0 0 0-.443.18.637.637 0 0 0-.166.45v4.58h-2.19a.577.577 0 0 0-.444.18.649.649 0 0 0-.166.46v.88a.576.576 0 0 0 .166.43.606.606 0 0 0 .444.17h2.19v7.36c0 3.2 1.433 4.8 4.3 4.8h-.004zm10.588.28a6.127 6.127 0 0 0 2.744-.54 5.242 5.242 0 0 0 1.885-1.6v1.23a.583.583 0 0 0 .18.45.617.617 0 0 0 .457.18h1.192a.621.621 0 0 0 .595-.385.599.599 0 0 0 .043-.244V51.08a.618.618 0 0 0-.638-.64h-1.275a.616.616 0 0 0-.637.64v7.6a4.304 4.304 0 0 1-1.04 3.06 3.636 3.636 0 0 1-2.813 1.12c-2.439 0-3.659-1.4-3.659-4.18v-7.6a.62.62 0 0 0-.637-.64h-1.276a.616.616 0 0 0-.637.64v7.74a6.684 6.684 0 0 0 1.441 4.49 5.084 5.084 0 0 0 4.075 1.69zm16.519 0a5.393 5.393 0 0 0 4.574-2.09v1.18a.613.613 0 0 0 .166.45.582.582 0 0 0 .444.18h1.192a.62.62 0 0 0 .594-.385.599.599 0 0 0 .043-.244V45.86a.614.614 0 0 0-.637-.63H130a.618.618 0 0 0-.637.63v6.34a5.415 5.415 0 0 0-4.491-2.03 5.196 5.196 0 0 0-4.351 1.88 7.967 7.967 0 0 0-1.58 4.71l-.028.82.028.83a7.961 7.961 0 0 0 1.566 4.72 5.177 5.177 0 0 0 4.365 1.87h-.002zm.527-2.14c-2.624 0-3.936-1.76-3.936-5.28l.028-.79a5.703 5.703 0 0 1 1-3.24 3.368 3.368 0 0 1 2.91-1.24 3.561 3.561 0 0 1 2.9 1.22 4.664 4.664 0 0 1 1.067 2.9c.018.2.028.56.028 1.07s-.01.84-.028 1.04a5.307 5.307 0 0 1-1.053 3.04 3.43 3.43 0 0 1-2.911 1.28h-.005zm11.087-15.11h1.636a.709.709 0 0 0 .471-.17.6.6 0 0 0 .194-.46v-1.43a.63.63 0 0 0-.194-.46.636.636 0 0 0-.471-.19h-1.636a.59.59 0 0 0-.457.19.646.646 0 0 0-.18.46v1.43a.621.621 0 0 0 .18.46.652.652 0 0 0 .457.17zm.222 16.97h1.22a.623.623 0 0 0 .594-.385.599.599 0 0 0 .043-.244V51.08a.62.62 0 0 0-.637-.64H136.7a.618.618 0 0 0-.638.64v13.01a.6.6 0 0 0 .391.587c.078.03.163.046.247.043h.006zm11.867.28a6.24 6.24 0 0 0 4.69-1.7 6.633 6.633 0 0 0 1.76-4.54 11.626 11.626 0 0 0 0-2.36 6.595 6.595 0 0 0-1.78-4.53 7.263 7.263 0 0 0-9.34 0 6.554 6.554 0 0 0-1.792 4.53l-.028 1.18.028 1.18a6.64 6.64 0 0 0 1.762 4.54 6.247 6.247 0 0 0 4.7 1.7zm0-2.06a3.68 3.68 0 0 1-2.82-1.11 4.868 4.868 0 0 1-1.12-3.2l-.03-1.05.03-1.04a4.85 4.85 0 0 1 1.12-3.2 4.125 4.125 0 0 1 5.63 0 4.803 4.803 0 0 1 1.12 3.2c.02.18.03.53.03 1.04s-.01.86-.03 1.05a4.815 4.815 0 0 1-1.12 3.2 3.662 3.662 0 0 1-2.81 1.11zM64.265 18.01c-3.82 0-4.916 3.4-8.018 3.4-2.865 0-3.944-3.4-7.866-3.4h-.021A6.324 6.324 0 0 0 42 24.3c0 3.79 3.432 4.73 3.432 7.8 0 3.07-3.432 4.16-3.432 7.95a6.354 6.354 0 1 0 12.708 0c0-3.79-3.433-4.87-3.433-7.95a5.144 5.144 0 0 1 4.966-4.9c3.1 0 4.2 3.4 8.018 3.4a6.301 6.301 0 1 0 .003-12.59h.003z" fill="#000"></path></svg>