<svg xmlns="http://www.w3.org/2000/svg" width="210" height="83" fill="none"><path fill-rule="evenodd" clip-rule="evenodd" d="M114.279 26.95h-6.23A12.974 12.974 0 0 1 121.019 14v6.23a6.743 6.743 0 0 0-6.74 6.72zm-12.97 14.87V35.6a6.746 6.746 0 0 0 6.74-6.73h6.23a12.974 12.974 0 0 1-12.97 12.95zm-1.92 0a12.985 12.985 0 0 1-12.98-12.95h6.24a6.74 6.74 0 0 0 6.74 6.73v6.22zm-6.74-14.87h-6.24A12.985 12.985 0 0 1 99.389 14v6.23a6.739 6.739 0 0 0-6.74 6.72zm-49.68 42.03a6.762 6.762 0 0 0 5.01-2.1.674.674 0 0 0-.04-1.09l-.72-.6a.734.734 0 0 0-1.11.06 4.41 4.41 0 0 1-3.1 1.27 4.34 4.34 0 0 1 0-8.68 4.4 4.4 0 0 1 3.1 1.27.782.782 0 0 0 1.11.06l.72-.62a.674.674 0 0 0 .04-1.09 6.885 6.885 0 1 0-5.01 11.52zm12.6-10.6a3.885 3.885 0 0 0-2.83 1.11V55.1a.64.64 0 0 0-.8-.75l-1.08.2a.777.777 0 0 0-.76.79v12.61a.717.717 0 0 0 .76.79h1.14a.699.699 0 0 0 .74-.79V62.9a2.083 2.083 0 0 1 2.19-2.21 2.016 2.016 0 0 1 2.1 2.21v5.05a.717.717 0 0 0 .76.79h1.16a.7.7 0 0 0 .74-.79V62.7a3.991 3.991 0 0 0-4.12-4.32zm15.96.11h-.74a.7.7 0 0 0-.76.76v.47a4.953 4.953 0 0 0-3.39-1.34 5.318 5.318 0 0 0 0 10.62 4.451 4.451 0 0 0 3.39-1.51v.46a.717.717 0 0 0 .76.79h.74a.717.717 0 0 0 .76-.79v-8.7a.699.699 0 0 0-.76-.76zm-4.49 8.17a2.982 2.982 0 0 1 0-5.95 2.984 2.984 0 0 1 0 5.95zm14.77-8.09a4.18 4.18 0 0 0-1.27-.19 3.148 3.148 0 0 0-2.78 1.5 2.01 2.01 0 0 0-2.1-1.5 3.022 3.022 0 0 0-1.4.35.614.614 0 0 0-.29.87l.18.84c.15.43.37.53.59.45.18-.02.4-.14.58-.14a.263.263 0 0 1 .26.32v6.88a.7.7 0 0 0 .74.79h1.16a.718.718 0 0 0 .76-.79v-4.8c0-1.46.74-2.46 2.04-2.46.31.003.618.057.91.16a.56.56 0 0 0 .78-.47l.26-1.01a.555.555 0 0 0-.42-.8zM86.089 69a3.02 3.02 0 0 0 1.56-.4.553.553 0 0 0 .25-.83l-.23-.79c-.16-.42-.36-.56-.7-.44-.126.057-.262.09-.4.1-.24 0-.28-.16-.28-.39V55.1a.646.646 0 0 0-.8-.77l-1.12.22a.76.76 0 0 0-.74.79v11.08a2.276 2.276 0 0 0 2.46 2.58zm4.73-12.15a1.735 1.735 0 1 0 .03-3.47 1.735 1.735 0 0 0-.03 3.47zM91.959 69c.54.01 1.073-.128 1.54-.4a.574.574 0 0 0 .26-.83l-.24-.79c-.14-.42-.36-.56-.68-.44a1.16 1.16 0 0 1-.42.1c-.22 0-.28-.16-.28-.39v-6.94a.682.682 0 0 0-.74-.76h-1.16a.7.7 0 0 0-.76.76v7.09a2.289 2.289 0 0 0 2.48 2.6zm5.39-4.7h6.93a.706.706 0 0 0 .82-.83 5.19 5.19 0 1 0-10.38.22 5.204 5.204 0 0 0 5.45 5.31 6.245 6.245 0 0 0 4.23-1.53.583.583 0 0 0 .227-.465.594.594 0 0 0-.227-.465l-.48-.49a.61.61 0 0 0-.96 0 4.052 4.052 0 0 1-2.55.91 2.907 2.907 0 0 1-3.06-2.66zm2.58-3.94a2.434 2.434 0 0 1 1.85.75c.395.422.647.957.72 1.53h-5.13a2.49 2.49 0 0 1 2.56-2.28zm16.27 8.62c2.76 0 4.94-1.43 4.94-3.9 0-2.94-2.62-3.59-4.82-4.33-1.15-.39-2.21-.77-2.21-1.76 0-.83.84-1.39 2.03-1.39a4.05 4.05 0 0 1 2.76 1.13.733.733 0 0 0 .594.22.734.734 0 0 0 .546-.32l.46-.55a.717.717 0 0 0-.14-1.15 6.157 6.157 0 0 0-4.26-1.55c-2.81 0-4.75 1.55-4.75 3.77 0 2.38 2.14 3.33 3.8 3.88 1.77.6 3.23.76 3.23 2.07 0 .91-.9 1.54-2.34 1.54a4.83 4.83 0 0 1-3.37-1.5.73.73 0 0 0-1.16.11l-.46.54a.739.739 0 0 0-.245.604.752.752 0 0 0 .325.566 6.78 6.78 0 0 0 5.07 2.02zm17.74-1.21l-.22-.71a.51.51 0 0 0-.209-.363.5.5 0 0 0-.411-.077c-.18.02-.32.1-.48.1-.22 0-.26-.16-.26-.39v-7.02a.703.703 0 0 0-.459-.72.698.698 0 0 0-.301-.04h-1.16a.679.679 0 0 0-.74.76v5.17a2 2 0 0 1-2.07 2.2 1.94 1.94 0 0 1-1.98-2.14v-5.23a.703.703 0 0 0-.459-.72.698.698 0 0 0-.301-.04h-1.16a.679.679 0 0 0-.74.76v5.53a3.884 3.884 0 0 0 1.096 2.991A3.894 3.894 0 0 0 127.049 69a3.324 3.324 0 0 0 3.05-1.66 2 2 0 0 0 2.06 1.66 3.1 3.1 0 0 0 1.52-.38.591.591 0 0 0 .26-.85zm8.13-.28l-.36-.85a.516.516 0 0 0-.86-.26 1.86 1.86 0 0 1-.92.3 1.288 1.288 0 0 1-1.32-1.56v-4.56h2.22a.713.713 0 0 0 .736-.455.703.703 0 0 0 .044-.305v-.51a.687.687 0 0 0-.478-.709.698.698 0 0 0-.302-.031h-2.22v-2.79a.646.646 0 0 0-.8-.77l-1.08.23a.77.77 0 0 0-.77.78v2.55h-.98a.704.704 0 0 0-.733.44.686.686 0 0 0-.047.3v.51a.703.703 0 0 0 .212.562.716.716 0 0 0 .568.198h.98v4.81a3.327 3.327 0 0 0 3.53 3.63 3.831 3.831 0 0 0 2.24-.65.625.625 0 0 0 .357-.356.646.646 0 0 0-.017-.504zm8.12 0l-.36-.85a.532.532 0 0 0-.36-.38.526.526 0 0 0-.51.12 1.86 1.86 0 0 1-.92.3 1.288 1.288 0 0 1-1.32-1.56v-4.56h2.22a.72.72 0 0 0 .743-.454.71.71 0 0 0 .047-.306v-.51a.698.698 0 0 0-.79-.74h-2.22v-2.79a.646.646 0 0 0-.8-.77l-1.08.23a.755.755 0 0 0-.544.23.758.758 0 0 0-.216.55v2.55h-.98a.703.703 0 0 0-.743.437.698.698 0 0 0-.047.303v.51a.713.713 0 0 0 .79.76h.98v4.81a3.32 3.32 0 0 0 3.52 3.63 3.886 3.886 0 0 0 2.25-.65.625.625 0 0 0 .357-.356.646.646 0 0 0-.017-.504zm6.08 1.51a5.312 5.312 0 0 0 3.53-9.126 5.31 5.31 0 0 0-8.126.882 5.308 5.308 0 0 0-.884 2.934 5.243 5.243 0 0 0 5.48 5.31zm0-2.34a2.982 2.982 0 0 1-2.857-1.734 2.983 2.983 0 0 1 .551-3.296 2.98 2.98 0 0 1 5.136 2.06 2.809 2.809 0 0 1-.768 2.102 2.8 2.8 0 0 1-2.062.868zm13.58-8.28a3.764 3.764 0 0 0-3.24 1.68 1.99 1.99 0 0 0-2.14-1.68 3.094 3.094 0 0 0-1.41.35.622.622 0 0 0-.28.87l.18.84c.14.43.36.53.59.45.18-.02.4-.14.58-.14a.263.263 0 0 1 .26.32v6.88a.703.703 0 0 0 .183.57.705.705 0 0 0 .557.22h1.16a.718.718 0 0 0 .76-.79V62.9a2.066 2.066 0 0 1 .585-1.589 2.074 2.074 0 0 1 1.575-.621 2.026 2.026 0 0 1 2.026 1.352c.096.275.132.568.104.858v5.05a.689.689 0 0 0 .028.306.687.687 0 0 0 .409.437c.096.038.2.054.303.047h1.16a.718.718 0 0 0 .76-.79V62.7a4.016 4.016 0 0 0-1.11-3.088 4.011 4.011 0 0 0-3.04-1.232z" fill="#000"></path></svg>