<svg xmlns="http://www.w3.org/2000/svg" width="210" height="83" fill="none"><path fill-rule="evenodd" clip-rule="evenodd" d="M89.389 38.41c3.84 0 7.557-1.85 7.557-7.19s-3.717-7.2-7.557-7.2H83.4v.1a4.33 4.33 0 0 1 .723 2.59v9.01a4.33 4.33 0 0 1-.723 2.59v.1H89.389zm-.392-.53a6.062 6.062 0 0 1-1.879-.31V24.86a6.062 6.062 0 0 1 1.879-.31c2.973 0 4.81 2.53 4.81 6.67 0 4.14-1.837 6.66-4.807 6.66h-.003zm18.815-2.94a3.162 3.162 0 0 1-2.953 1.71c-2.126 0-3.923-1.67-4.046-4.86h7.061a3.903 3.903 0 0 0-4.171-3.93c-2.767 0-5.141 2.22-5.141 5.66a4.767 4.767 0 0 0 4.914 5.16 4.5 4.5 0 0 0 4.542-3.74h-.206zm-4.893-6.48c1.3 0 2.044 1.15 2.209 2.86h-4.315c.041-1.91.908-2.86 2.106-2.86zm10.946 9.95v-.1a4.188 4.188 0 0 1-.578-2.32V31.4a1.899 1.899 0 0 1 .584-1.397 1.904 1.904 0 0 1 1.416-.533 1.82 1.82 0 0 1 1.878 1.93v4.59a4.188 4.188 0 0 1-.578 2.32v.1h3.944v-.1a4.188 4.188 0 0 1-.578-2.32v-4.65a3.208 3.208 0 0 0-3.324-3.48 3.496 3.496 0 0 0-3.242 2.02h-.1v-2.02h-.1l-3.428 1.15v.11a2.873 2.873 0 0 1 .744 2.26v4.61a4.196 4.196 0 0 1-.579 2.32v.1h3.944-.003zm13.735 0l3.324-8a5.416 5.416 0 0 1 1.528-2.18v-.1H130v.1a2.178 2.178 0 0 1 .268 2.45l-2.085 5.08-2.209-5.22a2.242 2.242 0 0 1 .124-2.31v-.1h-4.522v.1a7.647 7.647 0 0 1 1.383 2.25l3.407 7.93h1.234zm14.684-3.47a3.158 3.158 0 0 1-2.953 1.71c-2.126 0-3.923-1.67-4.047-4.86h7.062a3.903 3.903 0 0 0-4.171-3.93c-2.767 0-5.141 2.22-5.141 5.66a4.774 4.774 0 0 0 2.948 4.81 4.763 4.763 0 0 0 1.966.35 4.5 4.5 0 0 0 4.542-3.74h-.206zm-4.894-6.48c1.3 0 2.044 1.15 2.21 2.86h-4.316c.042-1.91.909-2.86 2.106-2.86zm10.947 9.95v-.1a4.188 4.188 0 0 1-.578-2.32v-3.21c0-1.73.826-2.35 2.519-2.35h1.2v-2.57a3.347 3.347 0 0 0-3.613 2.82h-.1v-2.82h-.1l-3.428 1.15v.11a2.87 2.87 0 0 1 .743 2.26v4.61a4.188 4.188 0 0 1-.578 2.32v.1h3.944-.009zm8.138.27c2.044 0 4.17-.92 4.17-3.35 0-2.2-1.589-3.02-3.654-3.58-1.528-.41-2.354-.84-2.354-1.83a1.523 1.523 0 0 1 1.673-1.54c1.383 0 2.849 1.33 3.468 3.12h.207v-2.88a8.712 8.712 0 0 0-3.283-.76c-2.292 0-3.985 1.28-3.985 3.27 0 2.12 1.611 2.92 3.593 3.42 1.589.39 2.353.84 2.353 1.87a1.732 1.732 0 0 1-1.151 1.656c-.227.08-.468.112-.707.094a4.498 4.498 0 0 1-3.758-3.31h-.206v3.06a8.42 8.42 0 0 0 3.634.76zM87.84 57.39v-.1a4.337 4.337 0 0 1-.722-2.59V43.8a4.67 4.67 0 0 1 1.8-.31c2.023 0 2.973 1.81 2.973 3.72 0 2.04-.95 3.79-2.911 3.79a4.492 4.492 0 0 1-1.239-.15v.33a4.927 4.927 0 0 0 1.879.35c2.6 0 5.368-1.23 5.368-4.32 0-3.29-2.911-4.21-5.719-4.21H83.4v.1c.51.765.763 1.672.723 2.59v9.01a4.33 4.33 0 0 1-.723 2.59v.1h4.44zm12.765 0v-.1a4.19 4.19 0 0 1-.578-2.32v-3.21c0-1.73.826-2.35 2.519-2.35h1.2v-2.57a3.347 3.347 0 0 0-3.613 2.82h-.1v-2.82h-.1l-3.428 1.15v.11a2.874 2.874 0 0 1 .743 2.26v4.61a4.19 4.19 0 0 1-.578 2.32v.1h3.944-.009zm9.335.27a5.412 5.412 0 1 0-5.265-5.41 5.141 5.141 0 0 0 1.448 3.858 5.139 5.139 0 0 0 3.817 1.552zm0-.47c-1.569 0-2.271-2.1-2.271-4.94 0-2.84.7-4.93 2.271-4.93s2.251 2.09 2.251 4.93-.682 4.94-2.251 4.94zm11.133 4.32v-.11a4.169 4.169 0 0 1-.578-2.32V56.9c.714.53 1.589.798 2.478.76 2.643 0 4.914-2.3 4.914-5.8 0-3.04-1.652-5.02-4.192-5.02a3.487 3.487 0 0 0-3.1 1.85h-.1v-1.85h-.1l-3.427 1.15v.11a2.872 2.872 0 0 1 .743 2.26v8.72a4.169 4.169 0 0 1-.578 2.32v.11h3.943-.003zm1.487-4.45a2.2 2.2 0 0 1-2.065-2.09v-4.96a1.924 1.924 0 0 1 1.982-1.73c1.487 0 2.457 1.56 2.457 4.18 0 2.9-.888 4.6-2.374 4.6zm16.192-3.14a3.147 3.147 0 0 1-2.953 1.7c-2.127 0-3.923-1.66-4.047-4.85h7.061a3.901 3.901 0 0 0-4.17-3.93c-2.767 0-5.141 2.22-5.141 5.66a4.774 4.774 0 0 0 2.948 4.81 4.763 4.763 0 0 0 1.966.35 4.5 4.5 0 0 0 4.542-3.74h-.206zm-4.894-6.48c1.3 0 2.044 1.15 2.209 2.86h-4.315c.042-1.92.909-2.86 2.106-2.86zm10.947 9.95v-.1a4.187 4.187 0 0 1-.578-2.32v-3.21c0-1.73.826-2.35 2.519-2.35h1.2v-2.57a3.347 3.347 0 0 0-3.613 2.82h-.1v-2.82h-.1l-3.428 1.15v.11a2.87 2.87 0 0 1 .743 2.26v4.61a4.187 4.187 0 0 1-.578 2.32v.1h3.944-.009zm8.138.27a3.012 3.012 0 0 0 2.828-1.64l-.206-.11a1.56 1.56 0 0 1-1.26.52 1.716 1.716 0 0 1-1.667-1.196 1.709 1.709 0 0 1-.067-.724v-6.66h2.746l.248-.74h-2.994v-2.2h-.1a9.44 9.44 0 0 1-3.613 2.63v.1a1.448 1.448 0 0 1 .929 1.44v5.43a3.016 3.016 0 0 0 3.156 3.15zm6.072-11.99a1.646 1.646 0 0 0 .316-3.258 1.643 1.643 0 0 0-1.967 1.608 1.616 1.616 0 0 0 1.651 1.65zM161 57.39v-.1a4.196 4.196 0 0 1-.579-2.32v-8.13h-.1l-3.427 1.15v.11a2.87 2.87 0 0 1 .743 2.26v4.61a4.187 4.187 0 0 1-.578 2.32v.1H161zm11.213-3.47a3.15 3.15 0 0 1-2.952 1.7c-2.127 0-3.923-1.66-4.047-4.85h7.061a3.903 3.903 0 0 0-4.171-3.93c-2.766 0-5.141 2.22-5.141 5.66a4.762 4.762 0 0 0 1.298 3.683 4.776 4.776 0 0 0 3.616 1.477 4.503 4.503 0 0 0 4.543-3.74h-.207zm-4.893-6.48c1.3 0 2.044 1.15 2.209 2.86h-4.315c.039-1.92.906-2.86 2.104-2.86h.002zm10.513 10.22c2.044 0 4.17-.93 4.17-3.35 0-2.2-1.589-3.03-3.654-3.58-1.528-.41-2.354-.84-2.354-1.83a1.523 1.523 0 0 1 1.673-1.54c1.383 0 2.849 1.33 3.468 3.12h.207V47.6a8.71 8.71 0 0 0-3.283-.76c-2.292 0-3.985 1.28-3.985 3.27 0 2.12 1.611 2.92 3.593 3.42 1.589.39 2.353.84 2.353 1.87a1.732 1.732 0 0 1-1.151 1.656c-.227.08-.468.112-.707.094a4.5 4.5 0 0 1-3.758-3.31h-.205v3.06c1.14.515 2.38.775 3.631.76h.002zM28 20v37.91h12.315V30.77h17.927V20H28zm30.217 37.96L70.781 64V36.87l-12.564-6.04v27.13z" fill="#000"></path></svg>