<svg xmlns="http://www.w3.org/2000/svg" width="210" height="83" fill="none"><path fill-rule="evenodd" clip-rule="evenodd" d="M93.2 32.76h1.83v-3.89h3.91v-1.74h-3.91v-2.36h4.35v-1.74H93.2v9.73zm7.28 0h1.79v-3.45c-.022-.52.141-1.03.46-1.44a1.538 1.538 0 0 1 1.25-.57c.182 0 .363.02.54.06.21.056.417.122.62.2v-1.79a2.407 2.407 0 0 0-.87-.14c-.421-.007-.835.1-1.2.31a2.142 2.142 0 0 0-.8.81h-.11v-.92h-1.68v6.93zm7.72.22c.409.012.814-.077 1.18-.26.323-.155.606-.38.83-.66h.1v.7h1.76v-4.27a2.711 2.711 0 0 0-.83-2.14 3.539 3.539 0 0 0-2.42-.74 4.028 4.028 0 0 0-1.67.35 3.463 3.463 0 0 0-1.26 1.01l1.14.9c.205-.252.465-.454.76-.59a2.1 2.1 0 0 1 .94-.23 1.75 1.75 0 0 1 1.16.36 1.14 1.14 0 0 1 .42.92v.3a4.767 4.767 0 0 0-1.83-.31 3.46 3.46 0 0 0-1.42.28c-.405.176-.755.46-1.01.82-.246.359-.375.785-.37 1.22a2.194 2.194 0 0 0 .71 1.7 2.585 2.585 0 0 0 1.81.64zm.43-1.39a1.23 1.23 0 0 1-.86-.26.885.885 0 0 1-.3-.69c0-.69.46-1.03 1.39-1.03a3.31 3.31 0 0 1 1.45.33c.005.43-.157.846-.45 1.16a1.6 1.6 0 0 1-1.23.49zm5.09 1.17h1.78v-3.49a2.466 2.466 0 0 1 .4-1.45 1.244 1.244 0 0 1 1.06-.55 1.199 1.199 0 0 1 .91.35c.228.285.342.645.32 1.01v4.13h1.78v-3.49a2.395 2.395 0 0 1 .41-1.45 1.324 1.324 0 0 1 1.11-.55 1.102 1.102 0 0 1 .86.35c.217.29.323.648.3 1.01v4.13h1.77V28.3a2.881 2.881 0 0 0-.62-1.96 2.216 2.216 0 0 0-1.8-.73 2.739 2.739 0 0 0-1.4.34 2.642 2.642 0 0 0-.93.89 1.882 1.882 0 0 0-.78-.88 2.336 2.336 0 0 0-1.28-.35 2.658 2.658 0 0 0-1.23.29c-.357.187-.66.462-.88.8h-.11v-.87h-1.67v6.93zm15.66.22a3.48 3.48 0 0 0 3.23-1.85l-1.45-.71a1.9 1.9 0 0 1-1.75.98 1.954 1.954 0 0 1-1.26-.42 1.98 1.98 0 0 1-.66-1.26h5.21a4.247 4.247 0 0 0-.36-2.38 3.012 3.012 0 0 0-1.18-1.27 3.599 3.599 0 0 0-1.85-.46 3.435 3.435 0 0 0-1.82.5 3.489 3.489 0 0 0-1.28 1.36 3.91 3.91 0 0 0 0 3.72 3.504 3.504 0 0 0 1.3 1.32 3.79 3.79 0 0 0 1.87.47zm-1.81-4.53c.113-.396.343-.748.66-1.01.31-.251.701-.383 1.1-.37.303-.006.603.066.87.21a1.6 1.6 0 0 1 .59.53c.132.19.214.41.24.64h-3.46zm9.94 4.53a3.815 3.815 0 0 0 1.91-.48 3.392 3.392 0 0 0 1.31-1.32 3.99 3.99 0 0 0 0-3.76 3.484 3.484 0 0 0-1.31-1.33 4.06 4.06 0 0 0-3.83 0 3.583 3.583 0 0 0-1.32 1.33 4.075 4.075 0 0 0 0 3.76 3.486 3.486 0 0 0 1.32 1.32 3.8 3.8 0 0 0 1.92.48zm0-1.64c-.333 0-.66-.086-.95-.25a1.863 1.863 0 0 1-.71-.71 2.268 2.268 0 0 1-.26-1.08 2.21 2.21 0 0 1 .26-1.08 1.925 1.925 0 0 1 2.61-.7c.294.164.536.406.7.7.177.332.267.704.26 1.08.008.376-.082.748-.26 1.08a1.838 1.838 0 0 1-.7.71c-.29.163-.617.25-.95.25zM92.28 46.83h2.03l.82-2.32h3.73l.82 2.32h2.03l-3.67-9.73h-2.11l-3.65 9.73zm3.44-4.01l.87-2.44.35-1.17h.11l.35 1.17.86 2.44h-2.54zm7.06 4.01h1.79v-3.45c-.022-.52.141-1.03.46-1.44a1.538 1.538 0 0 1 1.25-.57c.182 0 .363.02.54.06.21.054.418.12.62.2v-1.79a2.64 2.64 0 0 0-.87-.14c-.421-.007-.835.1-1.2.31a2.14 2.14 0 0 0-.8.81h-.11v-.92h-1.68v6.93zm8.68.22a3.767 3.767 0 0 0 1.97-.5 3.333 3.333 0 0 0 1.28-1.42l-1.62-.7a1.702 1.702 0 0 1-1.63.98 1.763 1.763 0 0 1-1.34-.56 2.076 2.076 0 0 1-.53-1.48c-.024-.54.167-1.07.53-1.47a1.761 1.761 0 0 1 1.34-.56 1.566 1.566 0 0 1 1.55.93l1.63-.68a2.798 2.798 0 0 0-1.19-1.41 3.846 3.846 0 0 0-1.99-.5 3.678 3.678 0 0 0-1.88.48c-.548.306-.998.76-1.3 1.31a4.072 4.072 0 0 0 0 3.8c.299.552.75 1.007 1.3 1.31a3.671 3.671 0 0 0 1.88.47zm4.53-.22h1.79v-3.52a2.201 2.201 0 0 1 .45-1.4 1.448 1.448 0 0 1 1.17-.57 1.264 1.264 0 0 1 .96.37 1.401 1.401 0 0 1 .36 1.03v4.09h1.78v-4.31a3.01 3.01 0 0 0-.67-2.08 2.456 2.456 0 0 0-1.94-.76 2.61 2.61 0 0 0-1.24.3 2.16 2.16 0 0 0-.87.79h-.11l.11-1.21V37.1h-1.79v9.73zm9.21-7.69a1.11 1.11 0 0 0 .81-.34 1.143 1.143 0 0 0 .33-.82 1.118 1.118 0 0 0-.33-.81 1.103 1.103 0 0 0-.81-.33 1.137 1.137 0 0 0-.82.33 1.078 1.078 0 0 0-.34.81 1.101 1.101 0 0 0 .34.82 1.143 1.143 0 0 0 .82.34zm-.9 7.69h1.78V39.9h-1.78v6.93zm6.6.11c.424.006.846-.072 1.24-.23v-1.74c-.139.09-.287.167-.44.23a1.074 1.074 0 0 1-.43.07.807.807 0 0 1-.65-.22 1.01 1.01 0 0 1-.23-.76v-2.87h1.7V39.9h-1.7v-1.96h-1.79v1.96h-1.21v1.52h1.21v3.2a2.333 2.333 0 0 0 .64 1.74c.204.192.446.338.71.43.306.102.627.153.95.15zm5.68.11a3.47 3.47 0 0 0 3.23-1.85l-1.44-.7a2.157 2.157 0 0 1-.7.71 2.01 2.01 0 0 1-1.06.26 1.954 1.954 0 0 1-1.26-.42 1.98 1.98 0 0 1-.66-1.26h5.22c.024-.2.037-.4.04-.6a4.018 4.018 0 0 0-.4-1.78 3.073 3.073 0 0 0-1.18-1.27 3.65 3.65 0 0 0-1.85-.46 3.468 3.468 0 0 0-1.83.5 3.636 3.636 0 0 0-1.28 1.36 3.753 3.753 0 0 0-.46 1.84 3.67 3.67 0 0 0 .47 1.88c.301.553.752 1.01 1.3 1.32.568.317 1.21.479 1.86.47zm-1.81-4.53a2.18 2.18 0 0 1 .66-1.01c.311-.25.701-.381 1.1-.37.307-.007.61.066.88.21.235.125.435.307.58.53.132.19.214.41.24.64h-3.46zm9.89 4.53a3.767 3.767 0 0 0 1.97-.5 3.333 3.333 0 0 0 1.28-1.42l-1.62-.7a1.702 1.702 0 0 1-1.63.98 1.763 1.763 0 0 1-1.34-.56 2.076 2.076 0 0 1-.53-1.48c-.024-.54.167-1.07.53-1.47a1.761 1.761 0 0 1 1.34-.56 1.566 1.566 0 0 1 1.55.93l1.64-.68a2.866 2.866 0 0 0-1.2-1.41 3.846 3.846 0 0 0-1.99-.5 3.678 3.678 0 0 0-1.88.48 3.408 3.408 0 0 0-1.3 1.31 4.072 4.072 0 0 0 0 3.8c.302.55.752 1.004 1.3 1.31a3.671 3.671 0 0 0 1.88.47zm7.49-.11c.424.005.846-.073 1.24-.23v-1.74c-.139.09-.287.167-.44.23a1.106 1.106 0 0 1-.43.07.836.836 0 0 1-.66-.22 1.045 1.045 0 0 1-.23-.76v-2.87h1.7V39.9h-1.7v-1.96h-1.78v1.96h-1.21v1.52h1.21v3.2a2.287 2.287 0 0 0 .64 1.74c.202.194.444.34.71.43.306.103.627.154.95.15zm5.17.11c.434.004.862-.096 1.25-.29a2.2 2.2 0 0 0 .88-.8h.11v.87h1.67V39.9h-1.78v3.53a2.177 2.177 0 0 1-.45 1.42 1.488 1.488 0 0 1-1.21.56 1.125 1.125 0 0 1-.9-.4 1.656 1.656 0 0 1-.34-1.11v-4h-1.79v4.21c-.047.78.187 1.55.66 2.17a2.354 2.354 0 0 0 1.9.77zm5.65-.22h1.79v-3.45c-.022-.52.141-1.03.46-1.44a1.538 1.538 0 0 1 1.25-.57c.182-.001.363.019.54.06.211.054.418.12.62.2v-1.79a2.64 2.64 0 0 0-.87-.14 2.388 2.388 0 0 0-1.2.31 2.14 2.14 0 0 0-.8.81h-.11v-.92h-1.68v6.93zm8.67.22a3.458 3.458 0 0 0 3.22-1.85l-1.44-.7c-.172.29-.412.534-.7.71a2.01 2.01 0 0 1-1.06.26 1.954 1.954 0 0 1-1.26-.42 1.98 1.98 0 0 1-.66-1.26h5.22a4.248 4.248 0 0 0-.36-2.38 3.012 3.012 0 0 0-1.18-1.27 3.652 3.652 0 0 0-1.85-.46 3.494 3.494 0 0 0-1.83.5 3.636 3.636 0 0 0-1.28 1.36 3.947 3.947 0 0 0 .01 3.72c.304.55.754 1.007 1.3 1.32a3.762 3.762 0 0 0 1.87.47zm-1.82-4.53c.12-.395.353-.746.67-1.01a1.638 1.638 0 0 1 1.09-.37c.307-.008.61.065.88.21.236.127.438.309.59.53.133.189.212.41.23.64h-3.46zM93.2 60.9h3.29a5.5 5.5 0 0 0 2.66-.61 4.343 4.343 0 0 0 1.74-1.71 5.615 5.615 0 0 0 0-5.09 4.342 4.342 0 0 0-1.74-1.71 5.502 5.502 0 0 0-2.66-.61H93.2v9.73zm1.83-1.74v-6.25h1.38a3.24 3.24 0 0 1 2.41.84 3.574 3.574 0 0 1 0 4.58 3.238 3.238 0 0 1-2.41.83h-1.38zm8.45-4.37l1.18-1.76c.104-.14.191-.29.26-.45.058-.143.085-.296.08-.45a1.137 1.137 0 0 0-.34-.83 1.108 1.108 0 0 0-.83-.35 1.179 1.179 0 0 0-.84.35 1.137 1.137 0 0 0-.34.83c-.003.235.067.466.2.66.13.182.311.321.52.4l-.7 1.07.81.53zm3.65-1.58a1.109 1.109 0 0 0 .81-.34 1.17 1.17 0 0 0 0-1.63 1.09 1.09 0 0 0-.81-.33 1.139 1.139 0 0 0-1.072.704 1.153 1.153 0 0 0 1.072 1.596zm-.9 7.69h1.78v-6.93h-1.78v6.93zm3.65 0h1.78v-3.53a2.21 2.21 0 0 1 .44-1.4 1.443 1.443 0 0 1 1.17-.56 1.2 1.2 0 0 1 .95.37c.243.286.365.655.34 1.03v4.09h1.79v-4.31a3.073 3.073 0 0 0-.66-2.08 2.384 2.384 0 0 0-1.9-.76 2.73 2.73 0 0 0-1.24.29 2.23 2.23 0 0 0-.89.8h-.11v-.87h-1.67v6.93zm10.84.11a3.25 3.25 0 0 0 1.24-.23v-1.74c-.142.092-.292.17-.45.23a1.027 1.027 0 0 1-.42.07.834.834 0 0 1-.66-.22 1.045 1.045 0 0 1-.23-.76v-2.87h1.7v-1.52h-1.7v-1.96h-1.78v1.96h-1.22v1.52h1.22v3.2a2.286 2.286 0 0 0 .64 1.74c.202.194.445.34.71.43.306.103.627.154.95.15zm5.68.11a3.458 3.458 0 0 0 3.22-1.85l-1.44-.7c-.172.29-.412.534-.7.71a2.008 2.008 0 0 1-1.06.26 1.954 1.954 0 0 1-1.26-.42 2.03 2.03 0 0 1-.66-1.26h5.22a4.248 4.248 0 0 0-.36-2.38 3.012 3.012 0 0 0-1.18-1.27 3.624 3.624 0 0 0-1.85-.46 3.41 3.41 0 0 0-1.83.51 3.544 3.544 0 0 0-1.28 1.35 3.86 3.86 0 0 0-.46 1.84c-.01.657.152 1.305.47 1.88.304.55.754 1.007 1.3 1.32a3.79 3.79 0 0 0 1.87.47zm-1.81-4.53c.113-.396.343-.748.66-1.01.307-.25.694-.381 1.09-.37.307-.008.61.065.88.21.236.127.438.309.59.53.132.19.214.41.24.64h-3.46zm6.55 4.31h1.78v-3.45c-.022-.52.141-1.03.46-1.44a1.544 1.544 0 0 1 1.26-.57 2.21 2.21 0 0 1 .53.06c.211.054.418.12.62.2v-1.79a2.643 2.643 0 0 0-.87-.14 2.3 2.3 0 0 0-1.2.32 2.042 2.042 0 0 0-.8.8h-.11v-.92h-1.67v6.93zm6.82-7.69a1.109 1.109 0 0 0 .81-.34 1.17 1.17 0 0 0 0-1.63 1.1 1.1 0 0 0-.81-.33 1.139 1.139 0 0 0-1.072.704 1.153 1.153 0 0 0 1.072 1.596zm-.9 7.69h1.78v-6.93h-1.78v6.93zm6.84.22a3.458 3.458 0 0 0 3.22-1.85l-1.44-.7c-.172.29-.412.534-.7.71a2.008 2.008 0 0 1-1.06.26 1.954 1.954 0 0 1-1.26-.42 1.98 1.98 0 0 1-.66-1.26h5.22a4.248 4.248 0 0 0-.36-2.38 3.012 3.012 0 0 0-1.18-1.27 3.624 3.624 0 0 0-1.85-.46 3.41 3.41 0 0 0-1.83.51 3.544 3.544 0 0 0-1.28 1.35 3.946 3.946 0 0 0 .01 3.72c.304.55.754 1.007 1.3 1.32a3.762 3.762 0 0 0 1.87.47zm-1.82-4.53c.12-.395.353-.746.67-1.01a1.638 1.638 0 0 1 1.09-.37c.307-.008.61.065.88.21.234.13.436.311.59.53.133.189.212.41.23.64h-3.46zm9.06 4.53c.434.003.862-.097 1.25-.29.359-.184.663-.46.88-.8h.1v.87h1.68v-6.93h-1.78v3.54a2.166 2.166 0 0 1-.45 1.41 1.5 1.5 0 0 1-1.22.56 1.118 1.118 0 0 1-.89-.4 1.66 1.66 0 0 1-.35-1.11v-4h-1.78v4.22c-.044.774.186 1.539.65 2.16a2.388 2.388 0 0 0 1.91.77zm5.65-.22h1.79v-3.45c-.022-.52.141-1.03.46-1.44a1.539 1.539 0 0 1 1.25-.57c.182-.001.363.02.54.06.21.056.417.122.62.2v-1.79a2.643 2.643 0 0 0-.87-.14 2.249 2.249 0 0 0-1.2.32 2.049 2.049 0 0 0-.8.8h-.11v-.92h-1.68v6.93zM65.71 19H35v30.67L50.36 65h30.71V34.33L65.71 19zm0 30.67H50.36V34.33h15.35v15.34z" fill="#000"></path></svg>